<svg width="345" height="278" viewBox="0 0 345 278" fill="none" xmlns="http://www.w3.org/2000/svg">
<path d="M330 146C320.5 111 292 72 238 72C184 72 143 116.638 143 168C143 187.882 126 209 101 209C76 209 59 187.882 59 168V6" stroke="black" stroke-width="12" stroke-linecap="round"/>
<path d="M312 146C304 124.5 286.994 93 240 90.5C193.006 88 159 126.5 159 177C159 198.645 132 227 101.5 227C71 227 42 202 42 173V6" stroke="black" stroke-width="12" stroke-linecap="round"/>
<path d="M293 146C285 129 267.5 108 236.5 108C205.5 108 176.5 133.977 176.5 182.5C176.5 212.5 134.5 246.5 98.5 245C62.5 243.5 28 216 23 176L23.0001 6" stroke="black" stroke-width="12" stroke-linecap="round"/>
<path d="M272.5 146C272.5 145 261 126.5 236 126.5C211 126.5 196 153.5 196 180C196 211 159.5 262.5 103.5 262.5C47.5 262.5 11.3148 223.337 6 180L6.00006 6" stroke="black" stroke-width="12" stroke-linecap="round"/>
<path d="M60.5 121.668C71.22 113.308 84.8556 108 100.5 108C121.12 108 138.25 117.221 149.815 130.5" stroke="black" stroke-width="12" stroke-linecap="round"/>
<path d="M61.5 101C72.22 92.6391 93 87.5 113.5 91.5C134 95.5 146 105.5 154.315 111.5" stroke="black" stroke-width="12" stroke-linecap="round"/>
<path d="M60.5 82.5C71.22 74.1391 97 71 115.5 73C134 75 153 86.5 165.5 97.5" stroke="black" stroke-width="12" stroke-linecap="round"/>
<path d="M59 167C59 147.118 76 126 101 126C126 126 143 147.118 143 167" stroke="black" stroke-width="12" stroke-linecap="round"/>
<path d="M272.001 190.5C264.501 201.5 251.501 209 239.501 209.5C227.501 210 202.501 204.5 196.501 171" stroke="black" stroke-width="12" stroke-linecap="round"/>
<path d="M292 191C281 215 263.001 224 244.001 226.5C225.001 229 201.501 219.5 193.001 204.5" stroke="black" stroke-width="12" stroke-linecap="round"/>
<path d="M330 191C312.5 253.5 258 262.5 237 262.5C216 262.5 194.501 256 174.501 238.5" stroke="black" stroke-width="12" stroke-linecap="round"/>
<path d="M311.5 191C295.5 234 258.603 244.542 240.001 245C221.399 245.458 200.501 239.5 185.001 223" stroke="black" stroke-width="12" stroke-linecap="round"/>
</svg>
