<svg width="1440" height="1024" viewBox="0 0 1440 1024" fill="none" xmlns="http://www.w3.org/2000/svg">
<g clip-path="url(#clip0)">
<g clip-path="url(#clip1)">
<path d="M1338.2 1021.5C1327.7 1022.1 1314.7 1020.9 1304.2 1019.2C1293.7 1017.5 1288.2 1010.5 1278.6 1010.2C1268.9 1009.9 1258.9 1011.4 1250.1 1011.9C1241.3 1012.5 1237.5 1005.5 1227 1004C1216.5 1002.5 1213.1 1004.6 1207.3 1001.7C1201.5 998.8 1175.8 973.2 1167.8 965.3C1159.8 957.4 1148.5 941.7 1143.9 919.6C1139.3 897.5 1134.2 898.3 1129.6 882.3C1125 866.3 1117 861 1114.5 875C1112 889 1106.9 894.2 1101.9 901.8C1096.9 909.4 1093.1 918.1 1089.7 938.2C1086.3 958.3 1078.8 960.9 1072.1 973.4C1065.4 985.9 1056.1 987.1 1051.1 985.6C1046.1 984.1 1038.9 977.7 1035.1 980.9C1031.3 984.1 1027.5 982.1 1022.5 983.5C1017.5 984.9 1020.8 992 1018.3 992.5C1015.8 993.1 1006.5 991.9 1003.2 993.1C999.8 994.3 994.8 1001.3 986.4 999.5C978 997.8 973 993.1 968.8 994.8C964.6 996.5 954.5 1011.1 950.3 1009.4C946.1 1007.7 934.3 991.3 931 991.9C927.6 992.5 920.9 996.6 917.6 997.1C914.2 997.7 910.9 994.2 905 986C899.1 977.8 882.3 952.2 879 952.2C875.6 952.2 863 969.7 862.2 966.8C861.4 963.9 848.8 938.3 845.4 939.4C842 940.6 833.6 951.6 828.6 967.4C823.6 983.1 808.5 996.5 808.5 996.5C808.5 996.5 798.4 986 794.2 988.3C790 990.6 774 1006.9 774 1006.9C755.5 991.8 752.2 1000.5 742.1 1006.9C732 1013.3 720.4 1017.4 720.4 1017.4C720.4 1017.4 708.8 1013.3 698.7 1006.9C688.6 1000.5 685.3 991.8 666.8 1006.9C666.8 1006.9 650.8 990.6 646.6 988.3C642.4 986 632.3 996.5 632.3 996.5C632.3 996.5 617.2 983.1 612.1 967.4C607.1 951.7 598.7 940.6 595.3 939.4C591.9 938.2 579.3 963.9 578.5 966.8C577.7 969.7 565.1 952.2 561.7 952.2C558.3 952.2 541.5 977.8 535.7 986C529.8 994.2 526.5 997.6 523.1 997.1C519.7 996.5 513 992.4 509.7 991.9C506.3 991.3 494.6 1007.6 490.4 1009.4C486.2 1011.1 476.1 996.6 471.9 994.8C467.7 993.1 462.7 997.7 454.3 999.5C445.9 1001.2 440.9 994.3 437.5 993.1C434.1 991.9 424.9 993.1 422.4 992.5C419.9 991.9 423.2 984.9 418.2 983.5C413.2 982.1 409.4 984.1 405.6 980.9C401.8 977.7 394.7 984.1 389.6 985.6C384.6 987.1 375.3 985.9 368.6 973.4C362 961 354.4 958.4 351.1 938.3C347.7 918.2 344 909.5 338.9 901.9C333.8 894.3 328.8 889.1 326.3 875.1C323.8 861.1 315.8 866.4 311.2 882.4C306.6 898.4 301.5 897.5 296.9 919.7C292.3 941.8 280.9 957.6 273 965.4C265 973.3 239.4 998.9 233.5 1001.8C227.6 1004.7 224.3 1002.7 213.8 1004.1C203.3 1005.6 199.5 1012.5 190.7 1012C181.9 1011.4 171.8 1010 162.2 1010.3C152.6 1010.6 147.1 1017.6 136.6 1019.3C126.1 1021 113.1 1022.2 102.6 1021.6C92.1 1021 38.3 1023 27 1027.7H720.4H1413.8C1402.4 1023 1348.7 1021 1338.2 1021.5Z" fill="white"/>
</g>
<g clip-path="url(#clip2)">
<path d="M1276.96 1024.85H1187.75C1183.88 1024.85 1180.71 1021.68 1180.71 1017.81V866.854C1180.71 862.985 1183.88 859.82 1187.75 859.82H1276.96C1280.83 859.82 1284 862.985 1284 866.854V1017.81C1284 1021.68 1280.83 1024.85 1276.96 1024.85ZM1187.75 861.994C1185.06 861.994 1182.89 864.168 1182.89 866.854V1017.81C1182.89 1020.5 1185.06 1022.67 1187.75 1022.67H1276.96C1279.65 1022.67 1281.82 1020.5 1281.82 1017.81V866.854C1281.82 864.168 1279.65 861.994 1276.96 861.994H1187.75V861.994Z" fill="white"/>
<path d="M1232.34 918.143C1221.18 918.143 1212.09 909.062 1212.09 897.903C1212.09 886.743 1221.18 877.662 1232.34 877.662C1243.5 877.662 1252.59 886.743 1252.59 897.903C1252.62 909.062 1243.54 918.143 1232.34 918.143ZM1232.34 879.836C1222.36 879.836 1214.27 887.958 1214.27 897.903C1214.27 907.879 1222.39 915.969 1232.34 915.969C1242.32 915.969 1250.41 907.847 1250.41 897.903C1250.45 887.926 1242.32 879.836 1232.34 879.836Z" fill="white"/>
<path d="M1232.34 907.911C1226.81 907.911 1222.33 903.434 1222.33 897.903C1222.33 892.371 1226.81 887.894 1232.34 887.894C1237.87 887.894 1242.35 892.371 1242.35 897.903C1242.35 903.434 1237.87 907.911 1232.34 907.911ZM1232.34 890.069C1228.02 890.069 1224.5 893.586 1224.5 897.903C1224.5 902.219 1228.02 905.737 1232.34 905.737C1236.66 905.737 1240.18 902.219 1240.18 897.903C1240.18 893.586 1236.69 890.069 1232.34 890.069Z" fill="white"/>
<path d="M1232.34 1009.15C1211.17 1009.15 1193.93 991.911 1193.93 970.743C1193.93 949.575 1211.17 932.34 1232.34 932.34C1253.52 932.34 1270.76 949.575 1270.76 970.743C1270.79 991.911 1253.55 1009.15 1232.34 1009.15ZM1232.34 934.515C1212.35 934.515 1196.1 950.758 1196.1 970.743C1196.1 990.728 1212.35 1006.97 1232.34 1006.97C1252.33 1006.97 1268.58 990.728 1268.58 970.743C1268.61 950.758 1252.33 934.515 1232.34 934.515Z" fill="white"/>
<path d="M1232.34 990.984C1221.18 990.984 1212.09 981.903 1212.09 970.743C1212.09 959.584 1221.18 950.503 1232.34 950.503C1243.5 950.503 1252.59 959.584 1252.59 970.743C1252.62 981.903 1243.54 990.984 1232.34 990.984ZM1232.34 952.677C1222.36 952.677 1214.27 960.799 1214.27 970.743C1214.27 980.72 1222.39 988.809 1232.34 988.809C1242.32 988.809 1250.41 980.688 1250.41 970.743C1250.45 960.767 1242.32 952.677 1232.34 952.677Z" fill="white"/>
</g>
<g clip-path="url(#clip3)">
<path d="M251.249 1026H162.037C158.167 1026 155 1022.83 155 1018.97V868.008C155 864.139 158.167 860.974 162.037 860.974H251.249C255.119 860.974 258.286 864.139 258.286 868.008V1018.97C258.286 1022.83 255.119 1026 251.249 1026ZM162.037 863.148C159.35 863.148 157.175 865.322 157.175 868.008V1018.97C157.175 1021.65 159.35 1023.83 162.037 1023.83H251.249C253.935 1023.83 256.111 1021.65 256.111 1018.97V868.008C256.111 865.322 253.935 863.148 251.249 863.148H162.037V863.148Z" fill="white"/>
<path d="M206.627 919.297C195.463 919.297 186.379 910.216 186.379 899.057C186.379 887.897 195.463 878.816 206.627 878.816C217.79 878.816 226.875 887.897 226.875 899.057C226.907 910.216 217.822 919.297 206.627 919.297ZM206.627 880.99C196.647 880.99 188.554 889.112 188.554 899.057C188.554 909.033 196.679 917.123 206.627 917.123C216.607 917.123 224.699 909.001 224.699 899.057C224.731 889.08 216.607 880.99 206.627 880.99Z" fill="white"/>
<path d="M206.627 909.065C201.093 909.065 196.615 904.589 196.615 899.057C196.615 893.525 201.093 889.048 206.627 889.048C212.16 889.048 216.639 893.525 216.639 899.057C216.639 904.589 212.16 909.065 206.627 909.065ZM206.627 891.223C202.309 891.223 198.79 894.74 198.79 899.057C198.79 903.373 202.309 906.891 206.627 906.891C210.945 906.891 214.464 903.373 214.464 899.057C214.464 894.74 210.977 891.223 206.627 891.223Z" fill="white"/>
<path d="M206.627 1010.3C185.452 1010.3 168.211 993.065 168.211 971.897C168.211 950.729 185.452 933.495 206.627 933.495C227.802 933.495 245.043 950.729 245.043 971.897C245.075 993.065 227.834 1010.3 206.627 1010.3ZM206.627 935.669C186.635 935.669 170.386 951.912 170.386 971.897C170.386 991.882 186.635 1008.13 206.627 1008.13C226.619 1008.13 242.868 991.882 242.868 971.897C242.9 951.912 226.619 935.669 206.627 935.669Z" fill="white"/>
<path d="M206.627 992.138C195.463 992.138 186.379 983.057 186.379 971.897C186.379 960.738 195.463 951.657 206.627 951.657C217.79 951.657 226.875 960.738 226.875 971.897C226.907 983.057 217.822 992.138 206.627 992.138ZM206.627 953.831C196.647 953.831 188.554 961.953 188.554 971.897C188.554 981.874 196.679 989.964 206.627 989.964C216.607 989.964 224.699 981.842 224.699 971.897C224.731 961.921 216.607 953.831 206.627 953.831Z" fill="white"/>
</g>
<path d="M798.518 873L875.989 873C880.473 873 884.13 876.657 884.13 881.141L884.13 906.849C884.13 911.333 880.473 914.99 875.989 914.99L856.159 914.99L847.191 930.532C846.929 930.989 846.167 930.989 845.906 930.532L836.938 914.99L798.518 914.99C794.034 914.99 790.377 911.333 790.377 906.849L790.377 881.141C790.377 876.657 794.034 873 798.518 873ZM875.989 913.51C879.668 913.51 882.65 910.528 882.65 906.849L882.65 881.141C882.65 877.462 879.668 874.48 875.989 874.48L798.518 874.48C794.839 874.48 791.857 877.462 791.857 881.141L791.857 906.849C791.857 910.528 794.839 913.51 798.518 913.51L837.352 913.51C837.613 913.51 837.852 913.662 837.983 913.88L846.537 928.682L855.092 913.88C855.223 913.662 855.462 913.51 855.723 913.51L875.989 913.51V913.51Z" fill="white"/>
<path d="M814.06 881.272H812.319V906.218H826.968V904.541H814.06V881.272Z" fill="white"/>
<path d="M831.409 881.272H829.689V906.218H831.409V881.272Z" fill="white"/>
<path d="M842.968 903.344L835.349 881.272H833.564L842.184 906.218H843.686L852.35 881.272H850.543L842.968 903.344Z" fill="white"/>
<path d="M856.072 904.541V894.049H866.934V892.417H856.072V882.948H869.785V881.272H854.309V906.218H870.112V904.541H856.072Z" fill="white"/>
<path d="M800.999 889.783C798.561 889.783 796.559 887.78 796.559 885.342C796.559 882.904 798.561 880.902 800.999 880.902C803.437 880.902 805.44 882.904 805.44 885.342C805.44 887.802 803.459 889.783 800.999 889.783ZM800.999 882.382C799.367 882.382 798.039 883.71 798.039 885.342C798.039 886.975 799.367 888.303 800.999 888.303C802.632 888.303 803.96 886.975 803.96 885.342C803.96 883.71 802.632 882.382 800.999 882.382Z" fill="white"/>
</g>
<defs>
<clipPath id="clip0">
<rect width="1440" height="1024" fill="white"/>
</clipPath>
<clipPath id="clip1">
<rect x="27" y="867" width="1386.7" height="160.7" fill="white"/>
</clipPath>
<clipPath id="clip2">
<path d="M1180.71 859.82H1284V1024.85H1180.71V859.82Z" fill="white"/>
</clipPath>
<clipPath id="clip3">
<path d="M155 860.974H258.286V1026H155V860.974Z" fill="white"/>
</clipPath>
</defs>
</svg>
