<svg width="1440" height="1024" viewBox="0 0 1440 1024" fill="none" xmlns="http://www.w3.org/2000/svg">
<g clip-path="url(#clip0)">
<path d="M1194.48 1007.79C1183.98 1008.39 1170.98 1007.19 1160.48 1005.48C1149.97 1003.78 1144.47 996.768 1134.87 996.467C1125.17 996.167 1115.17 997.67 1106.36 998.171C1097.56 998.772 1093.76 991.759 1083.26 990.256C1072.76 988.753 1069.36 990.857 1063.56 987.951C1057.75 985.046 1032.05 959.398 1024.05 951.484C1016.05 943.569 1004.74 927.839 1000.14 905.698C995.541 883.557 990.439 884.358 985.839 868.329C981.238 852.299 973.236 846.989 970.735 861.015C968.235 875.041 963.134 880.251 958.133 887.865C953.132 895.479 949.331 904.195 945.93 924.333C942.529 944.47 935.028 947.075 928.326 959.599C921.625 972.122 912.323 973.324 907.322 971.821C902.321 970.319 895.119 963.907 891.318 967.113C887.517 970.319 883.717 968.315 878.715 969.718C873.714 971.12 877.015 978.233 874.515 978.734C872.014 979.335 862.712 978.133 859.411 979.335C856.011 980.538 851.009 987.551 842.608 985.747C834.206 984.044 829.205 979.335 825.004 981.039C820.803 982.742 810.701 997.369 806.5 995.666C802.299 993.963 790.496 977.532 787.196 978.133C783.795 978.734 777.093 982.842 773.793 983.343C770.392 983.944 767.091 980.438 761.19 972.222C755.289 964.007 738.485 938.359 735.184 938.359C731.784 938.359 719.181 955.892 718.381 952.986C717.581 950.081 704.978 924.433 701.577 925.535C698.176 926.737 689.775 937.758 684.773 953.587C679.772 969.317 664.669 982.742 664.669 982.742C664.669 982.742 654.567 972.222 650.366 974.526C646.165 976.831 630.162 993.161 630.162 993.161C611.658 978.033 608.357 986.749 598.255 993.161C588.153 999.573 576.55 1003.68 576.55 1003.68C576.55 1003.68 564.948 999.573 554.845 993.161C544.743 986.749 541.442 978.033 522.938 993.161C522.938 993.161 506.935 976.831 502.734 974.526C498.533 972.222 488.431 982.742 488.431 982.742C488.431 982.742 473.328 969.317 468.227 953.587C463.226 937.858 454.824 926.737 451.423 925.535C448.022 924.333 435.419 950.081 434.619 952.986C433.819 955.892 421.216 938.359 417.816 938.359C414.415 938.359 397.611 964.007 391.81 972.222C385.909 980.438 382.608 983.844 379.207 983.343C375.807 982.742 369.105 978.634 365.804 978.133C362.404 977.532 350.701 993.863 346.5 995.666C342.299 997.369 332.197 982.842 327.996 981.039C323.795 979.335 318.794 983.944 310.392 985.747C301.991 987.451 296.99 980.538 293.589 979.335C290.188 978.133 280.986 979.335 278.486 978.734C275.985 978.133 279.286 971.12 274.285 969.718C269.284 968.315 265.483 970.319 261.682 967.113C257.881 963.907 250.78 970.319 245.678 971.821C240.677 973.324 231.375 972.122 224.674 959.599C218.072 947.176 210.471 944.571 207.17 924.433C203.769 904.296 200.069 895.579 194.967 887.965C189.866 880.351 184.865 875.141 182.365 861.115C179.864 847.089 171.863 852.399 167.262 868.429C162.661 884.459 157.559 883.557 152.958 905.798C148.357 927.94 136.955 943.769 129.053 951.584C121.052 959.498 95.446 985.146 89.5447 988.052C83.6434 990.957 80.3427 988.953 69.8405 990.356C59.3382 991.859 55.5373 998.772 46.7354 998.271C37.9335 997.67 27.8313 996.267 18.2293 996.568C8.62719 996.868 3.126 1003.88 -7.37627 1005.58C-17.8785 1007.29 -30.8813 1008.49 -41.3836 1007.89C-51.8859 1007.29 3.92616 1096.79 -7.37629 1101.5L576.55 1084.5L1270.1 1014C1258.7 1009.29 1204.99 1007.29 1194.48 1007.79Z" fill="url(#paint0_linear)"/>
<path d="M139.616 1007.79C150.119 1008.39 163.122 1007.19 173.624 1005.48C184.126 1003.78 189.627 996.768 199.229 996.467C208.931 996.167 218.934 997.67 227.735 998.171C236.537 998.772 240.338 991.759 250.84 990.256C261.343 988.753 264.743 990.857 270.545 987.951C276.346 985.046 302.051 959.398 310.053 951.484C318.055 943.569 329.357 927.839 333.958 905.698C338.559 883.557 343.661 884.358 348.262 868.329C352.863 852.299 360.864 846.989 363.365 861.015C365.865 875.041 370.966 880.251 375.967 887.865C380.969 895.479 384.769 904.195 388.17 924.333C391.571 944.47 399.073 947.075 405.774 959.599C412.475 972.122 421.777 973.324 426.779 971.821C431.78 970.319 438.981 963.907 442.782 967.113C446.583 970.319 450.384 968.315 455.385 969.718C460.386 971.12 457.085 978.233 459.586 978.734C462.086 979.335 471.388 978.133 474.689 979.335C478.09 980.538 483.091 987.551 491.492 985.747C499.894 984.044 504.895 979.335 509.096 981.039C513.297 982.742 523.399 997.369 527.6 995.666C531.801 993.963 543.604 977.532 546.904 978.133C550.305 978.734 557.007 982.842 560.307 983.343C563.708 983.944 567.009 980.438 572.91 972.222C578.811 964.007 595.615 938.359 598.916 938.359C602.316 938.359 614.919 955.892 615.719 952.986C616.519 950.081 629.122 924.433 632.523 925.535C635.924 926.737 644.326 937.758 649.327 953.587C654.328 969.317 669.431 982.742 669.431 982.742C669.431 982.742 679.533 972.222 683.734 974.526C687.935 976.831 703.938 993.161 703.938 993.161C722.442 978.033 725.743 986.749 735.845 993.161C745.948 999.573 757.55 1003.68 757.55 1003.68C757.55 1003.68 769.153 999.573 779.255 993.161C789.357 986.749 792.658 978.033 811.162 993.161C811.162 993.161 827.165 976.831 831.366 974.526C835.567 972.222 845.669 982.742 845.669 982.742C845.669 982.742 860.772 969.317 865.874 953.587C870.875 937.858 879.276 926.737 882.677 925.535C886.078 924.333 898.681 950.081 899.481 952.986C900.281 955.892 912.884 938.359 916.284 938.359C919.685 938.359 936.489 964.007 942.29 972.222C948.191 980.438 951.492 983.844 954.893 983.343C958.293 982.742 964.995 978.634 968.296 978.133C971.696 977.532 983.399 993.863 987.6 995.666C991.801 997.369 1001.9 982.842 1006.1 981.039C1010.3 979.335 1015.31 983.944 1023.71 985.747C1032.11 987.451 1037.11 980.538 1040.51 979.335C1043.91 978.133 1053.11 979.335 1055.61 978.734C1058.12 978.133 1054.81 971.12 1059.82 969.718C1064.82 968.315 1068.62 970.319 1072.42 967.113C1076.22 963.907 1083.32 970.319 1088.42 971.821C1093.42 973.324 1102.72 972.122 1109.43 959.599C1116.03 947.176 1123.63 944.571 1126.93 924.433C1130.33 904.296 1134.03 895.579 1139.13 887.965C1144.23 880.351 1149.23 875.141 1151.74 861.115C1154.24 847.089 1162.24 852.399 1166.84 868.429C1171.44 884.459 1176.54 883.557 1181.14 905.798C1185.74 927.94 1197.15 943.769 1205.05 951.584C1213.05 959.498 1238.65 985.146 1244.56 988.052C1250.46 990.957 1253.76 988.953 1264.26 990.356C1274.76 991.859 1278.56 998.772 1287.36 998.271C1296.17 997.67 1306.27 996.267 1315.87 996.568C1325.47 996.868 1330.97 1003.88 1341.48 1005.58C1351.98 1007.29 1364.98 1008.49 1375.48 1007.89C1385.99 1007.29 1330.17 1096.79 1341.48 1101.5L757.55 1084.5L64 1014C75.4025 1009.29 129.114 1007.29 139.616 1007.79Z" fill="url(#paint1_linear)"/>
<path d="M479.5 1010.5C268.5 1010.5 192 998 0 972V1024H894H1440V1005.5C1355 995 1206 984.5 1070 984.5C934 984.5 690.5 1010.5 479.5 1010.5Z" fill="white"/>
</g>
<defs>
<linearGradient id="paint0_linear" x1="-117" y1="868.48" x2="1270.02" y2="868.48" gradientUnits="userSpaceOnUse">
<stop stop-color="#00AEEF"/>
<stop offset="0.2059" stop-color="#0082C9"/>
<stop offset="0.4118" stop-color="#8D4F9F"/>
<stop offset="0.6127" stop-color="#EF3F74"/>
<stop offset="0.7843" stop-color="#EF4045"/>
<stop offset="1" stop-color="#FFDB00"/>
</linearGradient>
<linearGradient id="paint1_linear" x1="1451.1" y1="868.48" x2="64.0785" y2="868.48" gradientUnits="userSpaceOnUse">
<stop stop-color="#00AEEF"/>
<stop offset="0.2059" stop-color="#0082C9"/>
<stop offset="0.4118" stop-color="#8D4F9F"/>
<stop offset="0.6127" stop-color="#EF3F74"/>
<stop offset="0.7843" stop-color="#EF4045"/>
<stop offset="1" stop-color="#FFDB00"/>
</linearGradient>
<clipPath id="clip0">
<rect width="1440" height="1024" fill="white"/>
</clipPath>
</defs>
</svg>
