<svg width="1440" height="1024" viewBox="0 0 1440 1024" fill="none" xmlns="http://www.w3.org/2000/svg">
<g clip-path="url(#clip0)">
<path d="M1338.2 1017.5C1327.7 1018.1 1314.7 1016.9 1304.2 1015.2C1293.7 1013.5 1288.2 1006.5 1278.6 1006.2C1268.9 1005.9 1258.9 1007.4 1250.1 1007.9C1241.3 1008.5 1237.5 1001.5 1227 1000C1216.5 998.5 1213.1 1000.6 1207.3 997.7C1201.5 994.8 1175.8 969.2 1167.8 961.3C1159.8 953.4 1148.5 937.7 1143.9 915.6C1139.3 893.5 1134.2 894.3 1129.6 878.3C1125 862.3 1117 857 1114.5 871C1112 885 1106.9 890.2 1101.9 897.8C1096.9 905.4 1093.1 914.1 1089.7 934.2C1086.3 954.3 1078.8 956.9 1072.1 969.4C1065.4 981.9 1056.1 983.1 1051.1 981.6C1046.1 980.1 1038.9 973.7 1035.1 976.9C1031.3 980.1 1027.5 978.1 1022.5 979.5C1017.5 980.9 1020.8 988 1018.3 988.5C1015.8 989.1 1006.5 987.9 1003.2 989.1C999.8 990.3 994.8 997.3 986.4 995.5C978 993.8 973 989.1 968.8 990.8C964.6 992.5 954.5 1007.1 950.3 1005.4C946.1 1003.7 934.3 987.3 931 987.9C927.6 988.5 920.9 992.6 917.6 993.1C914.2 993.7 910.9 990.2 905 982C899.1 973.8 882.3 948.2 879 948.2C875.6 948.2 863 965.7 862.2 962.8C861.4 959.9 848.8 934.3 845.4 935.4C842 936.6 833.6 947.6 828.6 963.4C823.6 979.1 808.5 992.5 808.5 992.5C808.5 992.5 798.4 982 794.2 984.3C790 986.6 774 1002.9 774 1002.9C755.5 987.8 752.2 996.5 742.1 1002.9C732 1009.3 720.4 1013.4 720.4 1013.4C720.4 1013.4 708.8 1009.3 698.7 1002.9C688.6 996.5 685.3 987.8 666.8 1002.9C666.8 1002.9 650.8 986.6 646.6 984.3C642.4 982 632.3 992.5 632.3 992.5C632.3 992.5 617.2 979.1 612.1 963.4C607.1 947.7 598.7 936.6 595.3 935.4C591.9 934.2 579.3 959.9 578.5 962.8C577.7 965.7 565.1 948.2 561.7 948.2C558.3 948.2 541.5 973.8 535.7 982C529.8 990.2 526.5 993.6 523.1 993.1C519.7 992.5 513 988.4 509.7 987.9C506.3 987.3 494.6 1003.6 490.4 1005.4C486.2 1007.1 476.1 992.6 471.9 990.8C467.7 989.1 462.7 993.7 454.3 995.5C445.9 997.2 440.9 990.3 437.5 989.1C434.1 987.9 424.9 989.1 422.4 988.5C419.9 987.9 423.2 980.9 418.2 979.5C413.2 978.1 409.4 980.1 405.6 976.9C401.8 973.7 394.7 980.1 389.6 981.6C384.6 983.1 375.3 981.9 368.6 969.4C362 957 354.4 954.4 351.1 934.3C347.7 914.2 344 905.5 338.9 897.9C333.8 890.3 328.8 885.1 326.3 871.1C323.8 857.1 315.8 862.4 311.2 878.4C306.6 894.4 301.5 893.5 296.9 915.7C292.3 937.8 280.9 953.6 273 961.4C265 969.3 239.4 994.9 233.5 997.8C227.6 1000.7 224.3 998.7 213.8 1000.1C203.3 1001.6 199.5 1008.5 190.7 1008C181.9 1007.4 171.8 1006 162.2 1006.3C152.6 1006.6 147.1 1013.6 136.6 1015.3C126.1 1017 113.1 1018.2 102.6 1017.6C92.1 1017 38.3 1019 27 1023.7H720.4H1413.8C1402.4 1019 1348.7 1017 1338.2 1017.5Z" fill="white"/>
</g>
<g clip-path="url(#clip1)">
<g clip-path="url(#clip2)">
<path d="M64.6 934.8H22V941.2H64.6V934.8Z" fill="white" fill-opacity="0.32"/>
<path d="M64.6 972.1H22V978.5H64.6V972.1Z" fill="white" fill-opacity="0.32"/>
<path d="M64.6 981.4H22V987.8H64.6V981.4Z" fill="white" fill-opacity="0.32"/>
<path d="M64.6 944.1H22V950.5H64.6V944.1Z" fill="white" fill-opacity="0.32"/>
<path d="M64.6 962.8H22V969.2H64.6V962.8Z" fill="white" fill-opacity="0.32"/>
<path d="M64.6 1000H22V1006.4H64.6V1000Z" fill="white" fill-opacity="0.32"/>
<path d="M64.6 990.7H22V997.1H64.6V990.7Z" fill="white" fill-opacity="0.32"/>
<path d="M64.6 1009.4H22V1015.8H64.6V1009.4Z" fill="white" fill-opacity="0.32"/>
<path d="M64.6 953.5H22V959.9H64.6V953.5Z" fill="white" fill-opacity="0.32"/>
<path d="M64.6 925.5H22V931.9H64.6V925.5Z" fill="white" fill-opacity="0.32"/>
<path d="M64.6 1018.7H22V1023.6H64.6V1018.7Z" fill="white" fill-opacity="0.32"/>
<path d="M64.6 916.2H22V922.6H64.6V916.2Z" fill="white" fill-opacity="0.32"/>
<path d="M161.4 934.8H118.8V941.2H161.4V934.8Z" fill="white" fill-opacity="0.32"/>
<path d="M161.4 972.1H118.8V978.5H161.4V972.1Z" fill="white" fill-opacity="0.32"/>
<path d="M161.4 981.4H118.8V987.8H161.4V981.4Z" fill="white" fill-opacity="0.32"/>
<path d="M161.4 944.1H118.8V950.5H161.4V944.1Z" fill="white" fill-opacity="0.32"/>
<path d="M161.4 962.8H118.8V969.2H161.4V962.8Z" fill="white" fill-opacity="0.32"/>
<path d="M161.4 1000H118.8V1006.4H161.4V1000Z" fill="white" fill-opacity="0.32"/>
<path d="M161.4 853H118.8V857.4H161.4V853Z" fill="white" fill-opacity="0.32"/>
<path d="M161.4 990.7H118.8V997.1H161.4V990.7Z" fill="white" fill-opacity="0.32"/>
<path d="M161.4 1009.4H118.8V1015.8H161.4V1009.4Z" fill="white" fill-opacity="0.32"/>
<path d="M161.4 953.5H118.8V959.9H161.4V953.5Z" fill="white" fill-opacity="0.32"/>
<path d="M161.4 925.5H118.8V931.9H161.4V925.5Z" fill="white" fill-opacity="0.32"/>
<path d="M161.4 860.3H118.8V866.7H161.4V860.3Z" fill="white" fill-opacity="0.32"/>
<path d="M161.4 878.9H118.8V885.3H161.4V878.9Z" fill="white" fill-opacity="0.32"/>
<path d="M161.4 1018.7H118.8V1023.6H161.4V1018.7Z" fill="white" fill-opacity="0.32"/>
<path d="M161.4 869.6H118.8V876H161.4V869.6Z" fill="white" fill-opacity="0.32"/>
<path d="M161.4 906.9H118.8V913.3H161.4V906.9Z" fill="white" fill-opacity="0.32"/>
<path d="M161.4 888.2H118.8V894.6H161.4V888.2Z" fill="white" fill-opacity="0.32"/>
<path d="M161.4 916.2H118.8V922.6H161.4V916.2Z" fill="white" fill-opacity="0.32"/>
<path d="M161.4 897.5H118.8V903.9H161.4V897.5Z" fill="white" fill-opacity="0.32"/>
<path d="M258.2 934.8H215.6V941.2H258.2V934.8Z" fill="white" fill-opacity="0.32"/>
<path d="M258.2 972.1H215.6V978.5H258.2V972.1Z" fill="white" fill-opacity="0.32"/>
<path d="M258.2 981.4H215.6V987.8H258.2V981.4Z" fill="white" fill-opacity="0.32"/>
<path d="M258.2 944.1H215.6V950.5H258.2V944.1Z" fill="white" fill-opacity="0.32"/>
<path d="M258.2 962.8H215.6V969.2H258.2V962.8Z" fill="white" fill-opacity="0.32"/>
<path d="M258.2 1000H215.6V1006.4H258.2V1000Z" fill="white" fill-opacity="0.32"/>
<path d="M258.2 990.7H215.6V997.1H258.2V990.7Z" fill="white" fill-opacity="0.32"/>
<path d="M258.2 1009.4H215.6V1015.8H258.2V1009.4Z" fill="white" fill-opacity="0.32"/>
<path d="M258.2 953.5H215.6V959.9H258.2V953.5Z" fill="white" fill-opacity="0.32"/>
<path d="M258.2 1018.7H215.6V1023.6H258.2V1018.7Z" fill="white" fill-opacity="0.32"/>
<path d="M355 934.8H312.4V941.2H355V934.8Z" fill="white" fill-opacity="0.32"/>
<path d="M355 972.1H312.4V978.5H355V972.1Z" fill="white" fill-opacity="0.32"/>
<path d="M355 981.4H312.4V987.8H355V981.4Z" fill="white" fill-opacity="0.32"/>
<path d="M355 944.1H312.4V950.5H355V944.1Z" fill="white" fill-opacity="0.32"/>
<path d="M355 962.8H312.4V969.2H355V962.8Z" fill="white" fill-opacity="0.32"/>
<path d="M355 1000H312.4V1006.4H355V1000Z" fill="white" fill-opacity="0.32"/>
<path d="M355 990.7H312.4V997.1H355V990.7Z" fill="white" fill-opacity="0.32"/>
<path d="M355 1009.4H312.4V1015.8H355V1009.4Z" fill="white" fill-opacity="0.32"/>
<path d="M355 953.5H312.4V959.9H355V953.5Z" fill="white" fill-opacity="0.32"/>
<path d="M355 925.5H312.4V931.9H355V925.5Z" fill="white" fill-opacity="0.32"/>
<path d="M355 1018.7H312.4V1023.6H355V1018.7Z" fill="white" fill-opacity="0.32"/>
<path d="M355 906.9H312.4V913.3H355V906.9Z" fill="white" fill-opacity="0.32"/>
<path d="M355 888.2H312.4V894.6H355V888.2Z" fill="white" fill-opacity="0.32"/>
<path d="M355 916.2H312.4V922.6H355V916.2Z" fill="white" fill-opacity="0.32"/>
<path d="M355 897.5H312.4V903.9H355V897.5Z" fill="white" fill-opacity="0.32"/>
<path d="M451.8 934.8H409.2V941.2H451.8V934.8Z" fill="white" fill-opacity="0.32"/>
<path d="M451.8 972.1H409.2V978.5H451.8V972.1Z" fill="white" fill-opacity="0.32"/>
<path d="M451.8 981.4H409.2V987.8H451.8V981.4Z" fill="white" fill-opacity="0.32"/>
<path d="M451.8 944.1H409.2V950.5H451.8V944.1Z" fill="white" fill-opacity="0.32"/>
<path d="M451.8 962.8H409.2V969.2H451.8V962.8Z" fill="white" fill-opacity="0.32"/>
<path d="M451.8 1000H409.2V1006.4H451.8V1000Z" fill="white" fill-opacity="0.32"/>
<path d="M451.8 853H409.2V857.4H451.8V853Z" fill="white" fill-opacity="0.32"/>
<path d="M451.8 990.7H409.2V997.1H451.8V990.7Z" fill="white" fill-opacity="0.32"/>
<path d="M451.8 1009.4H409.2V1015.8H451.8V1009.4Z" fill="white" fill-opacity="0.32"/>
<path d="M451.8 953.5H409.2V959.9H451.8V953.5Z" fill="white" fill-opacity="0.32"/>
<path d="M451.8 925.5H409.2V931.9H451.8V925.5Z" fill="white" fill-opacity="0.32"/>
<path d="M451.8 860.3H409.2V866.7H451.8V860.3Z" fill="white" fill-opacity="0.32"/>
<path d="M451.8 878.9H409.2V885.3H451.8V878.9Z" fill="white" fill-opacity="0.32"/>
<path d="M451.8 1018.7H409.2V1023.6H451.8V1018.7Z" fill="white" fill-opacity="0.32"/>
<path d="M451.8 869.6H409.2V876H451.8V869.6Z" fill="white" fill-opacity="0.32"/>
<path d="M451.8 906.9H409.2V913.3H451.8V906.9Z" fill="white" fill-opacity="0.32"/>
<path d="M451.8 888.2H409.2V894.6H451.8V888.2Z" fill="white" fill-opacity="0.32"/>
<path d="M451.8 916.2H409.2V922.6H451.8V916.2Z" fill="white" fill-opacity="0.32"/>
<path d="M451.8 897.5H409.2V903.9H451.8V897.5Z" fill="white" fill-opacity="0.32"/>
<path d="M548.6 934.8H506V941.2H548.6V934.8Z" fill="white" fill-opacity="0.32"/>
<path d="M548.6 972.1H506V978.5H548.6V972.1Z" fill="white" fill-opacity="0.32"/>
<path d="M548.6 981.4H506V987.8H548.6V981.4Z" fill="white" fill-opacity="0.32"/>
<path d="M548.6 944.1H506V950.5H548.6V944.1Z" fill="white" fill-opacity="0.32"/>
<path d="M548.6 962.8H506V969.2H548.6V962.8Z" fill="white" fill-opacity="0.32"/>
<path d="M548.6 1000H506V1006.4H548.6V1000Z" fill="white" fill-opacity="0.32"/>
<path d="M548.6 990.7H506V997.1H548.6V990.7Z" fill="white" fill-opacity="0.32"/>
<path d="M548.6 1009.4H506V1015.8H548.6V1009.4Z" fill="white" fill-opacity="0.32"/>
<path d="M548.6 953.5H506V959.9H548.6V953.5Z" fill="white" fill-opacity="0.32"/>
<path d="M548.6 925.5H506V931.9H548.6V925.5Z" fill="white" fill-opacity="0.32"/>
<path d="M548.6 1018.7H506V1023.6H548.6V1018.7Z" fill="white" fill-opacity="0.32"/>
<path d="M645.4 1009.4H602.8V1015.8H645.4V1009.4Z" fill="white" fill-opacity="0.32"/>
<path d="M645.4 1018.7H602.8V1023.6H645.4V1018.7Z" fill="white" fill-opacity="0.32"/>
<path d="M742.2 934.8H699.6V941.2H742.2V934.8Z" fill="white" fill-opacity="0.32"/>
<path d="M742.2 972.1H699.6V978.5H742.2V972.1Z" fill="white" fill-opacity="0.32"/>
<path d="M742.2 981.4H699.6V987.8H742.2V981.4Z" fill="white" fill-opacity="0.32"/>
<path d="M742.2 944.1H699.6V950.5H742.2V944.1Z" fill="white" fill-opacity="0.32"/>
<path d="M742.2 962.8H699.6V969.2H742.2V962.8Z" fill="white" fill-opacity="0.32"/>
<path d="M742.2 1000H699.6V1006.4H742.2V1000Z" fill="white" fill-opacity="0.32"/>
<path d="M742.2 990.7H699.6V997.1H742.2V990.7Z" fill="white" fill-opacity="0.32"/>
<path d="M742.2 1009.4H699.6V1015.8H742.2V1009.4Z" fill="white" fill-opacity="0.32"/>
<path d="M742.2 953.5H699.6V959.9H742.2V953.5Z" fill="white" fill-opacity="0.32"/>
<path d="M742.2 1018.7H699.6V1023.6H742.2V1018.7Z" fill="white" fill-opacity="0.32"/>
<path d="M838.9 934.8H796.3V941.2H838.9V934.8Z" fill="white" fill-opacity="0.32"/>
<path d="M838.9 972.1H796.3V978.5H838.9V972.1Z" fill="white" fill-opacity="0.32"/>
<path d="M838.9 981.4H796.3V987.8H838.9V981.4Z" fill="white" fill-opacity="0.32"/>
<path d="M838.9 944.1H796.3V950.5H838.9V944.1Z" fill="white" fill-opacity="0.32"/>
<path d="M838.9 962.8H796.3V969.2H838.9V962.8Z" fill="white" fill-opacity="0.32"/>
<path d="M838.9 1000H796.3V1006.4H838.9V1000Z" fill="white" fill-opacity="0.32"/>
<path d="M838.9 990.7H796.3V997.1H838.9V990.7Z" fill="white" fill-opacity="0.32"/>
<path d="M838.9 1009.4H796.3V1015.8H838.9V1009.4Z" fill="white" fill-opacity="0.32"/>
<path d="M838.9 953.5H796.3V959.9H838.9V953.5Z" fill="white" fill-opacity="0.32"/>
<path d="M838.9 925.5H796.3V931.9H838.9V925.5Z" fill="white" fill-opacity="0.32"/>
<path d="M838.9 1018.7H796.3V1023.6H838.9V1018.7Z" fill="white" fill-opacity="0.32"/>
<path d="M838.9 906.9H796.3V913.3H838.9V906.9Z" fill="white" fill-opacity="0.32"/>
<path d="M838.9 916.2H796.3V922.6H838.9V916.2Z" fill="white" fill-opacity="0.32"/>
<path d="M935.7 934.8H893.1V941.2H935.7V934.8Z" fill="white" fill-opacity="0.32"/>
<path d="M935.7 972.1H893.1V978.5H935.7V972.1Z" fill="white" fill-opacity="0.32"/>
<path d="M935.7 981.4H893.1V987.8H935.7V981.4Z" fill="white" fill-opacity="0.32"/>
<path d="M935.7 944.1H893.1V950.5H935.7V944.1Z" fill="white" fill-opacity="0.32"/>
<path d="M935.7 962.8H893.1V969.2H935.7V962.8Z" fill="white" fill-opacity="0.32"/>
<path d="M935.7 1000H893.1V1006.4H935.7V1000Z" fill="white" fill-opacity="0.32"/>
<path d="M935.7 990.7H893.1V997.1H935.7V990.7Z" fill="white" fill-opacity="0.32"/>
<path d="M935.7 1009.4H893.1V1015.8H935.7V1009.4Z" fill="white" fill-opacity="0.32"/>
<path d="M935.7 953.5H893.1V959.9H935.7V953.5Z" fill="white" fill-opacity="0.32"/>
<path d="M935.7 925.5H893.1V931.9H935.7V925.5Z" fill="white" fill-opacity="0.32"/>
<path d="M935.7 1018.7H893.1V1023.6H935.7V1018.7Z" fill="white" fill-opacity="0.32"/>
<path d="M935.7 906.9H893.1V913.3H935.7V906.9Z" fill="white" fill-opacity="0.32"/>
<path d="M935.7 916.2H893.1V922.6H935.7V916.2Z" fill="white" fill-opacity="0.32"/>
<path d="M935.7 897.5H893.1V903.9H935.7V897.5Z" fill="white" fill-opacity="0.32"/>
<path d="M1032.5 934.8H989.9V941.2H1032.5V934.8Z" fill="white" fill-opacity="0.32"/>
<path d="M1032.5 972.1H989.9V978.5H1032.5V972.1Z" fill="white" fill-opacity="0.32"/>
<path d="M1032.5 981.4H989.9V987.8H1032.5V981.4Z" fill="white" fill-opacity="0.32"/>
<path d="M1032.5 944.1H989.9V950.5H1032.5V944.1Z" fill="white" fill-opacity="0.32"/>
<path d="M1032.5 962.8H989.9V969.2H1032.5V962.8Z" fill="white" fill-opacity="0.32"/>
<path d="M1032.5 1000H989.9V1006.4H1032.5V1000Z" fill="white" fill-opacity="0.32"/>
<path d="M1032.5 853H989.9V857.4H1032.5V853Z" fill="white" fill-opacity="0.32"/>
<path d="M1032.5 990.7H989.9V997.1H1032.5V990.7Z" fill="white" fill-opacity="0.32"/>
<path d="M1032.5 1009.4H989.9V1015.8H1032.5V1009.4Z" fill="white" fill-opacity="0.32"/>
<path d="M1032.5 953.5H989.9V959.9H1032.5V953.5Z" fill="white" fill-opacity="0.32"/>
<path d="M1032.5 925.5H989.9V931.9H1032.5V925.5Z" fill="white" fill-opacity="0.32"/>
<path d="M1032.5 860.3H989.9V866.7H1032.5V860.3Z" fill="white" fill-opacity="0.32"/>
<path d="M1032.5 878.9H989.9V885.3H1032.5V878.9Z" fill="white" fill-opacity="0.32"/>
<path d="M1032.5 1018.7H989.9V1023.6H1032.5V1018.7Z" fill="white" fill-opacity="0.32"/>
<path d="M1032.5 869.6H989.9V876H1032.5V869.6Z" fill="white" fill-opacity="0.32"/>
<path d="M1032.5 906.9H989.9V913.3H1032.5V906.9Z" fill="white" fill-opacity="0.32"/>
<path d="M1032.5 888.2H989.9V894.6H1032.5V888.2Z" fill="white" fill-opacity="0.32"/>
<path d="M1032.5 916.2H989.9V922.6H1032.5V916.2Z" fill="white" fill-opacity="0.32"/>
<path d="M1032.5 897.5H989.9V903.9H1032.5V897.5Z" fill="white" fill-opacity="0.32"/>
<path d="M1129.3 934.8H1086.7V941.2H1129.3V934.8Z" fill="white" fill-opacity="0.32"/>
<path d="M1129.3 972.1H1086.7V978.5H1129.3V972.1Z" fill="white" fill-opacity="0.32"/>
<path d="M1129.3 981.4H1086.7V987.8H1129.3V981.4Z" fill="white" fill-opacity="0.32"/>
<path d="M1129.3 944.1H1086.7V950.5H1129.3V944.1Z" fill="white" fill-opacity="0.32"/>
<path d="M1129.3 962.8H1086.7V969.2H1129.3V962.8Z" fill="white" fill-opacity="0.32"/>
<path d="M1129.3 1000H1086.7V1006.4H1129.3V1000Z" fill="white" fill-opacity="0.32"/>
<path d="M1129.3 990.7H1086.7V997.1H1129.3V990.7Z" fill="white" fill-opacity="0.32"/>
<path d="M1129.3 1009.4H1086.7V1015.8H1129.3V1009.4Z" fill="white" fill-opacity="0.32"/>
<path d="M1129.3 953.5H1086.7V959.9H1129.3V953.5Z" fill="white" fill-opacity="0.32"/>
<path d="M1129.3 925.5H1086.7V931.9H1129.3V925.5Z" fill="white" fill-opacity="0.32"/>
<path d="M1129.3 1018.7H1086.7V1023.6H1129.3V1018.7Z" fill="white" fill-opacity="0.32"/>
<path d="M1129.3 916.2H1086.7V922.6H1129.3V916.2Z" fill="white" fill-opacity="0.32"/>
<path d="M1226.1 972.1H1183.5V978.5H1226.1V972.1Z" fill="white" fill-opacity="0.32"/>
<path d="M1226.1 981.4H1183.5V987.8H1226.1V981.4Z" fill="white" fill-opacity="0.32"/>
<path d="M1226.1 944.1H1183.5V950.5H1226.1V944.1Z" fill="white" fill-opacity="0.32"/>
<path d="M1226.1 962.8H1183.5V969.2H1226.1V962.8Z" fill="white" fill-opacity="0.32"/>
<path d="M1226.1 1000H1183.5V1006.4H1226.1V1000Z" fill="white" fill-opacity="0.32"/>
<path d="M1226.1 990.7H1183.5V997.1H1226.1V990.7Z" fill="white" fill-opacity="0.32"/>
<path d="M1226.1 1009.4H1183.5V1015.8H1226.1V1009.4Z" fill="white" fill-opacity="0.32"/>
<path d="M1226.1 953.5H1183.5V959.9H1226.1V953.5Z" fill="white" fill-opacity="0.32"/>
<path d="M1226.1 1018.7H1183.5V1023.6H1226.1V1018.7Z" fill="white" fill-opacity="0.32"/>
<path d="M1322.9 934.8H1280.3V941.2H1322.9V934.8Z" fill="white" fill-opacity="0.32"/>
<path d="M1322.9 972.1H1280.3V978.5H1322.9V972.1Z" fill="white" fill-opacity="0.32"/>
<path d="M1322.9 981.4H1280.3V987.8H1322.9V981.4Z" fill="white" fill-opacity="0.32"/>
<path d="M1322.9 944.1H1280.3V950.5H1322.9V944.1Z" fill="white" fill-opacity="0.32"/>
<path d="M1322.9 962.8H1280.3V969.2H1322.9V962.8Z" fill="white" fill-opacity="0.32"/>
<path d="M1322.9 1000H1280.3V1006.4H1322.9V1000Z" fill="white" fill-opacity="0.32"/>
<path d="M1322.9 990.7H1280.3V997.1H1322.9V990.7Z" fill="white" fill-opacity="0.32"/>
<path d="M1322.9 1009.4H1280.3V1015.8H1322.9V1009.4Z" fill="white" fill-opacity="0.32"/>
<path d="M1322.9 953.5H1280.3V959.9H1322.9V953.5Z" fill="white" fill-opacity="0.32"/>
<path d="M1322.9 925.5H1280.3V931.9H1322.9V925.5Z" fill="white" fill-opacity="0.32"/>
<path d="M1322.9 1018.7H1280.3V1023.6H1322.9V1018.7Z" fill="white" fill-opacity="0.32"/>
<path d="M1322.9 906.9H1280.3V913.3H1322.9V906.9Z" fill="white" fill-opacity="0.32"/>
<path d="M1322.9 916.2H1280.3V922.6H1322.9V916.2Z" fill="white" fill-opacity="0.32"/>
<path d="M1322.9 897.5H1280.3V903.9H1322.9V897.5Z" fill="white" fill-opacity="0.32"/>
<path d="M113 934.8H70.4V941.2H113V934.8Z" fill="white" fill-opacity="0.32"/>
<path d="M113 972.1H70.4V978.5H113V972.1Z" fill="white" fill-opacity="0.32"/>
<path d="M113 981.4H70.4V987.8H113V981.4Z" fill="white" fill-opacity="0.32"/>
<path d="M113 944.1H70.4V950.5H113V944.1Z" fill="white" fill-opacity="0.32"/>
<path d="M113 962.8H70.4V969.2H113V962.8Z" fill="white" fill-opacity="0.32"/>
<path d="M113 1000H70.4V1006.4H113V1000Z" fill="white" fill-opacity="0.32"/>
<path d="M113 990.7H70.4V997.1H113V990.7Z" fill="white" fill-opacity="0.32"/>
<path d="M113 1009.4H70.4V1015.8H113V1009.4Z" fill="white" fill-opacity="0.32"/>
<path d="M113 953.5H70.4V959.9H113V953.5Z" fill="white" fill-opacity="0.32"/>
<path d="M113 925.5H70.4V931.9H113V925.5Z" fill="white" fill-opacity="0.32"/>
<path d="M113 1018.7H70.4V1023.6H113V1018.7Z" fill="white" fill-opacity="0.32"/>
<path d="M113 906.9H70.4V913.3H113V906.9Z" fill="white" fill-opacity="0.32"/>
<path d="M113 888.2H70.4V894.6H113V888.2Z" fill="white" fill-opacity="0.32"/>
<path d="M113 916.2H70.4V922.6H113V916.2Z" fill="white" fill-opacity="0.32"/>
<path d="M113 897.5H70.4V903.9H113V897.5Z" fill="white" fill-opacity="0.32"/>
<path d="M209.8 934.8H167.2V941.2H209.8V934.8Z" fill="white" fill-opacity="0.32"/>
<path d="M209.8 972.1H167.2V978.5H209.8V972.1Z" fill="white" fill-opacity="0.32"/>
<path d="M209.8 981.4H167.2V987.8H209.8V981.4Z" fill="white" fill-opacity="0.32"/>
<path d="M209.8 944.1H167.2V950.5H209.8V944.1Z" fill="white" fill-opacity="0.32"/>
<path d="M209.8 962.8H167.2V969.2H209.8V962.8Z" fill="white" fill-opacity="0.32"/>
<path d="M209.8 1000H167.2V1006.4H209.8V1000Z" fill="white" fill-opacity="0.32"/>
<path d="M209.8 990.7H167.2V997.1H209.8V990.7Z" fill="white" fill-opacity="0.32"/>
<path d="M209.8 1009.4H167.2V1015.8H209.8V1009.4Z" fill="white" fill-opacity="0.32"/>
<path d="M209.8 953.5H167.2V959.9H209.8V953.5Z" fill="white" fill-opacity="0.32"/>
<path d="M209.8 925.5H167.2V931.9H209.8V925.5Z" fill="white" fill-opacity="0.32"/>
<path d="M209.8 878.9H167.2V885.3H209.8V878.9Z" fill="white" fill-opacity="0.32"/>
<path d="M209.8 1018.7H167.2V1023.6H209.8V1018.7Z" fill="white" fill-opacity="0.32"/>
<path d="M209.8 906.9H167.2V913.3H209.8V906.9Z" fill="white" fill-opacity="0.32"/>
<path d="M209.8 888.2H167.2V894.6H209.8V888.2Z" fill="white" fill-opacity="0.32"/>
<path d="M209.8 916.2H167.2V922.6H209.8V916.2Z" fill="white" fill-opacity="0.32"/>
<path d="M209.8 897.5H167.2V903.9H209.8V897.5Z" fill="white" fill-opacity="0.32"/>
<path d="M306.6 934.8H264V941.2H306.6V934.8Z" fill="white" fill-opacity="0.32"/>
<path d="M306.6 972.1H264V978.5H306.6V972.1Z" fill="white" fill-opacity="0.32"/>
<path d="M306.6 981.4H264V987.8H306.6V981.4Z" fill="white" fill-opacity="0.32"/>
<path d="M306.6 944.1H264V950.5H306.6V944.1Z" fill="white" fill-opacity="0.32"/>
<path d="M306.6 962.8H264V969.2H306.6V962.8Z" fill="white" fill-opacity="0.32"/>
<path d="M306.6 1000H264V1006.4H306.6V1000Z" fill="white" fill-opacity="0.32"/>
<path d="M306.6 990.7H264V997.1H306.6V990.7Z" fill="white" fill-opacity="0.32"/>
<path d="M306.6 1009.4H264V1015.8H306.6V1009.4Z" fill="white" fill-opacity="0.32"/>
<path d="M306.6 953.5H264V959.9H306.6V953.5Z" fill="white" fill-opacity="0.32"/>
<path d="M306.6 925.5H264V931.9H306.6V925.5Z" fill="white" fill-opacity="0.32"/>
<path d="M306.6 1018.7H264V1023.6H306.6V1018.7Z" fill="white" fill-opacity="0.32"/>
<path d="M306.6 916.2H264V922.6H306.6V916.2Z" fill="white" fill-opacity="0.32"/>
<path d="M403.4 934.8H360.8V941.2H403.4V934.8Z" fill="white" fill-opacity="0.32"/>
<path d="M403.4 972.1H360.8V978.5H403.4V972.1Z" fill="white" fill-opacity="0.32"/>
<path d="M403.4 981.4H360.8V987.8H403.4V981.4Z" fill="white" fill-opacity="0.32"/>
<path d="M403.4 944.1H360.8V950.5H403.4V944.1Z" fill="white" fill-opacity="0.32"/>
<path d="M403.4 962.8H360.8V969.2H403.4V962.8Z" fill="white" fill-opacity="0.32"/>
<path d="M403.4 1000H360.8V1006.4H403.4V1000Z" fill="white" fill-opacity="0.32"/>
<path d="M403.4 853H360.8V857.4H403.4V853Z" fill="white" fill-opacity="0.32"/>
<path d="M403.4 990.7H360.8V997.1H403.4V990.7Z" fill="white" fill-opacity="0.32"/>
<path d="M403.4 1009.4H360.8V1015.8H403.4V1009.4Z" fill="white" fill-opacity="0.32"/>
<path d="M403.4 953.5H360.8V959.9H403.4V953.5Z" fill="white" fill-opacity="0.32"/>
<path d="M403.4 925.5H360.8V931.9H403.4V925.5Z" fill="white" fill-opacity="0.32"/>
<path d="M403.4 860.3H360.8V866.7H403.4V860.3Z" fill="white" fill-opacity="0.32"/>
<path d="M403.4 878.9H360.8V885.3H403.4V878.9Z" fill="white" fill-opacity="0.32"/>
<path d="M403.4 1018.7H360.8V1023.6H403.4V1018.7Z" fill="white" fill-opacity="0.32"/>
<path d="M403.4 869.6H360.8V876H403.4V869.6Z" fill="white" fill-opacity="0.32"/>
<path d="M403.4 906.9H360.8V913.3H403.4V906.9Z" fill="white" fill-opacity="0.32"/>
<path d="M403.4 888.2H360.8V894.6H403.4V888.2Z" fill="white" fill-opacity="0.32"/>
<path d="M403.4 916.2H360.8V922.6H403.4V916.2Z" fill="white" fill-opacity="0.32"/>
<path d="M403.4 897.5H360.8V903.9H403.4V897.5Z" fill="white" fill-opacity="0.32"/>
<path d="M500.2 934.8H457.6V941.2H500.2V934.8Z" fill="white" fill-opacity="0.32"/>
<path d="M500.2 972.1H457.6V978.5H500.2V972.1Z" fill="white" fill-opacity="0.32"/>
<path d="M500.2 981.4H457.6V987.8H500.2V981.4Z" fill="white" fill-opacity="0.32"/>
<path d="M500.2 944.1H457.6V950.5H500.2V944.1Z" fill="white" fill-opacity="0.32"/>
<path d="M500.2 962.8H457.6V969.2H500.2V962.8Z" fill="white" fill-opacity="0.32"/>
<path d="M500.2 1000H457.6V1006.4H500.2V1000Z" fill="white" fill-opacity="0.32"/>
<path d="M500.2 990.7H457.6V997.1H500.2V990.7Z" fill="white" fill-opacity="0.32"/>
<path d="M500.2 1009.4H457.6V1015.8H500.2V1009.4Z" fill="white" fill-opacity="0.32"/>
<path d="M500.2 953.5H457.6V959.9H500.2V953.5Z" fill="white" fill-opacity="0.32"/>
<path d="M500.2 925.5H457.6V931.9H500.2V925.5Z" fill="white" fill-opacity="0.32"/>
<path d="M500.2 878.9H457.6V885.3H500.2V878.9Z" fill="white" fill-opacity="0.32"/>
<path d="M500.2 1018.7H457.6V1023.6H500.2V1018.7Z" fill="white" fill-opacity="0.32"/>
<path d="M500.2 906.9H457.6V913.3H500.2V906.9Z" fill="white" fill-opacity="0.32"/>
<path d="M500.2 888.2H457.6V894.6H500.2V888.2Z" fill="white" fill-opacity="0.32"/>
<path d="M500.2 916.2H457.6V922.6H500.2V916.2Z" fill="white" fill-opacity="0.32"/>
<path d="M500.2 897.5H457.6V903.9H500.2V897.5Z" fill="white" fill-opacity="0.32"/>
<path d="M597 1000H554.4V1006.4H597V1000Z" fill="white" fill-opacity="0.32"/>
<path d="M597 990.7H554.4V997.1H597V990.7Z" fill="white" fill-opacity="0.32"/>
<path d="M597 1009.4H554.4V1015.8H597V1009.4Z" fill="white" fill-opacity="0.32"/>
<path d="M597 1018.7H554.4V1023.6H597V1018.7Z" fill="white" fill-opacity="0.32"/>
<path d="M693.8 972.1H651.2V978.5H693.8V972.1Z" fill="white" fill-opacity="0.32"/>
<path d="M693.8 981.4H651.2V987.8H693.8V981.4Z" fill="white" fill-opacity="0.32"/>
<path d="M693.8 1000H651.2V1006.4H693.8V1000Z" fill="white" fill-opacity="0.32"/>
<path d="M693.8 990.7H651.2V997.1H693.8V990.7Z" fill="white" fill-opacity="0.32"/>
<path d="M693.8 1009.4H651.2V1015.8H693.8V1009.4Z" fill="white" fill-opacity="0.32"/>
<path d="M693.8 1018.7H651.2V1023.6H693.8V1018.7Z" fill="white" fill-opacity="0.32"/>
<path d="M790.5 934.8H747.9V941.2H790.5V934.8Z" fill="white" fill-opacity="0.32"/>
<path d="M790.5 972.1H747.9V978.5H790.5V972.1Z" fill="white" fill-opacity="0.32"/>
<path d="M790.5 981.4H747.9V987.8H790.5V981.4Z" fill="white" fill-opacity="0.32"/>
<path d="M790.5 944.1H747.9V950.5H790.5V944.1Z" fill="white" fill-opacity="0.32"/>
<path d="M790.5 962.8H747.9V969.2H790.5V962.8Z" fill="white" fill-opacity="0.32"/>
<path d="M790.5 1000H747.9V1006.4H790.5V1000Z" fill="white" fill-opacity="0.32"/>
<path d="M790.5 853H747.9V857.4H790.5V853Z" fill="white" fill-opacity="0.32"/>
<path d="M790.5 990.7H747.9V997.1H790.5V990.7Z" fill="white" fill-opacity="0.32"/>
<path d="M790.5 1009.4H747.9V1015.8H790.5V1009.4Z" fill="white" fill-opacity="0.32"/>
<path d="M790.5 953.5H747.9V959.9H790.5V953.5Z" fill="white" fill-opacity="0.32"/>
<path d="M790.5 925.5H747.9V931.9H790.5V925.5Z" fill="white" fill-opacity="0.32"/>
<path d="M790.5 860.3H747.9V866.7H790.5V860.3Z" fill="white" fill-opacity="0.32"/>
<path d="M790.5 878.9H747.9V885.3H790.5V878.9Z" fill="white" fill-opacity="0.32"/>
<path d="M790.5 1018.7H747.9V1023.6H790.5V1018.7Z" fill="white" fill-opacity="0.32"/>
<path d="M790.5 869.6H747.9V876H790.5V869.6Z" fill="white" fill-opacity="0.32"/>
<path d="M790.5 906.9H747.9V913.3H790.5V906.9Z" fill="white" fill-opacity="0.32"/>
<path d="M790.5 888.2H747.9V894.6H790.5V888.2Z" fill="white" fill-opacity="0.32"/>
<path d="M790.5 916.2H747.9V922.6H790.5V916.2Z" fill="white" fill-opacity="0.32"/>
<path d="M790.5 897.5H747.9V903.9H790.5V897.5Z" fill="white" fill-opacity="0.32"/>
<path d="M887.3 972.1H844.7V978.5H887.3V972.1Z" fill="white" fill-opacity="0.32"/>
<path d="M887.3 981.4H844.7V987.8H887.3V981.4Z" fill="white" fill-opacity="0.32"/>
<path d="M887.3 962.8H844.7V969.2H887.3V962.8Z" fill="white" fill-opacity="0.32"/>
<path d="M887.3 1000H844.7V1006.4H887.3V1000Z" fill="white" fill-opacity="0.32"/>
<path d="M887.3 990.7H844.7V997.1H887.3V990.7Z" fill="white" fill-opacity="0.32"/>
<path d="M887.3 1009.4H844.7V1015.8H887.3V1009.4Z" fill="white" fill-opacity="0.32"/>
<path d="M887.3 953.5H844.7V959.9H887.3V953.5Z" fill="white" fill-opacity="0.32"/>
<path d="M887.3 1018.7H844.7V1023.6H887.3V1018.7Z" fill="white" fill-opacity="0.32"/>
<path d="M984.1 934.8H941.5V941.2H984.1V934.8Z" fill="white" fill-opacity="0.32"/>
<path d="M984.1 972.1H941.5V978.5H984.1V972.1Z" fill="white" fill-opacity="0.32"/>
<path d="M984.1 981.4H941.5V987.8H984.1V981.4Z" fill="white" fill-opacity="0.32"/>
<path d="M984.1 944.1H941.5V950.5H984.1V944.1Z" fill="white" fill-opacity="0.32"/>
<path d="M984.1 962.8H941.5V969.2H984.1V962.8Z" fill="white" fill-opacity="0.32"/>
<path d="M984.1 1000H941.5V1006.4H984.1V1000Z" fill="white" fill-opacity="0.32"/>
<path d="M984.1 990.7H941.5V997.1H984.1V990.7Z" fill="white" fill-opacity="0.32"/>
<path d="M984.1 1009.4H941.5V1015.8H984.1V1009.4Z" fill="white" fill-opacity="0.32"/>
<path d="M984.1 953.5H941.5V959.9H984.1V953.5Z" fill="white" fill-opacity="0.32"/>
<path d="M984.1 925.5H941.5V931.9H984.1V925.5Z" fill="white" fill-opacity="0.32"/>
<path d="M984.1 878.9H941.5V885.3H984.1V878.9Z" fill="white" fill-opacity="0.32"/>
<path d="M984.1 1018.7H941.5V1023.6H984.1V1018.7Z" fill="white" fill-opacity="0.32"/>
<path d="M984.1 869.6H941.5V876H984.1V869.6Z" fill="white" fill-opacity="0.32"/>
<path d="M984.1 906.9H941.5V913.3H984.1V906.9Z" fill="white" fill-opacity="0.32"/>
<path d="M984.1 888.2H941.5V894.6H984.1V888.2Z" fill="white" fill-opacity="0.32"/>
<path d="M984.1 916.2H941.5V922.6H984.1V916.2Z" fill="white" fill-opacity="0.32"/>
<path d="M984.1 897.5H941.5V903.9H984.1V897.5Z" fill="white" fill-opacity="0.32"/>
<path d="M1080.9 934.8H1038.3V941.2H1080.9V934.8Z" fill="white" fill-opacity="0.32"/>
<path d="M1080.9 972.1H1038.3V978.5H1080.9V972.1Z" fill="white" fill-opacity="0.32"/>
<path d="M1080.9 981.4H1038.3V987.8H1080.9V981.4Z" fill="white" fill-opacity="0.32"/>
<path d="M1080.9 944.1H1038.3V950.5H1080.9V944.1Z" fill="white" fill-opacity="0.32"/>
<path d="M1080.9 962.8H1038.3V969.2H1080.9V962.8Z" fill="white" fill-opacity="0.32"/>
<path d="M1080.9 1000H1038.3V1006.4H1080.9V1000Z" fill="white" fill-opacity="0.32"/>
<path d="M1080.9 990.7H1038.3V997.1H1080.9V990.7Z" fill="white" fill-opacity="0.32"/>
<path d="M1080.9 1009.4H1038.3V1015.8H1080.9V1009.4Z" fill="white" fill-opacity="0.32"/>
<path d="M1080.9 953.5H1038.3V959.9H1080.9V953.5Z" fill="white" fill-opacity="0.32"/>
<path d="M1080.9 925.5H1038.3V931.9H1080.9V925.5Z" fill="white" fill-opacity="0.32"/>
<path d="M1080.9 878.9H1038.3V885.3H1080.9V878.9Z" fill="white" fill-opacity="0.32"/>
<path d="M1080.9 1018.7H1038.3V1023.6H1080.9V1018.7Z" fill="white" fill-opacity="0.32"/>
<path d="M1080.9 869.6H1038.3V876H1080.9V869.6Z" fill="white" fill-opacity="0.32"/>
<path d="M1080.9 906.9H1038.3V913.3H1080.9V906.9Z" fill="white" fill-opacity="0.32"/>
<path d="M1080.9 888.2H1038.3V894.6H1080.9V888.2Z" fill="white" fill-opacity="0.32"/>
<path d="M1080.9 916.2H1038.3V922.6H1080.9V916.2Z" fill="white" fill-opacity="0.32"/>
<path d="M1080.9 897.5H1038.3V903.9H1080.9V897.5Z" fill="white" fill-opacity="0.32"/>
<path d="M1177.7 934.8H1135.1V941.2H1177.7V934.8Z" fill="white" fill-opacity="0.32"/>
<path d="M1177.7 972.1H1135.1V978.5H1177.7V972.1Z" fill="white" fill-opacity="0.32"/>
<path d="M1177.7 981.4H1135.1V987.8H1177.7V981.4Z" fill="white" fill-opacity="0.32"/>
<path d="M1177.7 944.1H1135.1V950.5H1177.7V944.1Z" fill="white" fill-opacity="0.32"/>
<path d="M1177.7 962.8H1135.1V969.2H1177.7V962.8Z" fill="white" fill-opacity="0.32"/>
<path d="M1177.7 1000H1135.1V1006.4H1177.7V1000Z" fill="white" fill-opacity="0.32"/>
<path d="M1177.7 990.7H1135.1V997.1H1177.7V990.7Z" fill="white" fill-opacity="0.32"/>
<path d="M1177.7 1009.4H1135.1V1015.8H1177.7V1009.4Z" fill="white" fill-opacity="0.32"/>
<path d="M1177.7 953.5H1135.1V959.9H1177.7V953.5Z" fill="white" fill-opacity="0.32"/>
<path d="M1177.7 925.5H1135.1V931.9H1177.7V925.5Z" fill="white" fill-opacity="0.32"/>
<path d="M1177.7 878.9H1135.1V885.3H1177.7V878.9Z" fill="white" fill-opacity="0.32"/>
<path d="M1177.7 1018.7H1135.1V1023.6H1177.7V1018.7Z" fill="white" fill-opacity="0.32"/>
<path d="M1177.7 906.9H1135.1V913.3H1177.7V906.9Z" fill="white" fill-opacity="0.32"/>
<path d="M1177.7 888.2H1135.1V894.6H1177.7V888.2Z" fill="white" fill-opacity="0.32"/>
<path d="M1177.7 916.2H1135.1V922.6H1177.7V916.2Z" fill="white" fill-opacity="0.32"/>
<path d="M1177.7 897.5H1135.1V903.9H1177.7V897.5Z" fill="white" fill-opacity="0.32"/>
<path d="M1274.5 934.8H1231.9V941.2H1274.5V934.8Z" fill="white" fill-opacity="0.32"/>
<path d="M1274.5 972.1H1231.9V978.5H1274.5V972.1Z" fill="white" fill-opacity="0.32"/>
<path d="M1274.5 981.4H1231.9V987.8H1274.5V981.4Z" fill="white" fill-opacity="0.32"/>
<path d="M1274.5 944.1H1231.9V950.5H1274.5V944.1Z" fill="white" fill-opacity="0.32"/>
<path d="M1274.5 962.8H1231.9V969.2H1274.5V962.8Z" fill="white" fill-opacity="0.32"/>
<path d="M1274.5 1000H1231.9V1006.4H1274.5V1000Z" fill="white" fill-opacity="0.32"/>
<path d="M1274.5 990.7H1231.9V997.1H1274.5V990.7Z" fill="white" fill-opacity="0.32"/>
<path d="M1274.5 1009.4H1231.9V1015.8H1274.5V1009.4Z" fill="white" fill-opacity="0.32"/>
<path d="M1274.5 953.5H1231.9V959.9H1274.5V953.5Z" fill="white" fill-opacity="0.32"/>
<path d="M1274.5 925.5H1231.9V931.9H1274.5V925.5Z" fill="white" fill-opacity="0.32"/>
<path d="M1274.5 1018.7H1231.9V1023.6H1274.5V1018.7Z" fill="white" fill-opacity="0.32"/>
<path d="M1274.5 916.2H1231.9V922.6H1274.5V916.2Z" fill="white" fill-opacity="0.32"/>
<path d="M1371.3 934.8H1328.7V941.2H1371.3V934.8Z" fill="white" fill-opacity="0.32"/>
<path d="M1371.3 972.1H1328.7V978.5H1371.3V972.1Z" fill="white" fill-opacity="0.32"/>
<path d="M1371.3 981.4H1328.7V987.8H1371.3V981.4Z" fill="white" fill-opacity="0.32"/>
<path d="M1371.3 944.1H1328.7V950.5H1371.3V944.1Z" fill="white" fill-opacity="0.32"/>
<path d="M1371.3 962.8H1328.7V969.2H1371.3V962.8Z" fill="white" fill-opacity="0.32"/>
<path d="M1371.3 1000H1328.7V1006.4H1371.3V1000Z" fill="white" fill-opacity="0.32"/>
<path d="M1371.3 990.7H1328.7V997.1H1371.3V990.7Z" fill="white" fill-opacity="0.32"/>
<path d="M1371.3 1009.4H1328.7V1015.8H1371.3V1009.4Z" fill="white" fill-opacity="0.32"/>
<path d="M1371.3 953.5H1328.7V959.9H1371.3V953.5Z" fill="white" fill-opacity="0.32"/>
<path d="M1371.3 925.5H1328.7V931.9H1371.3V925.5Z" fill="white" fill-opacity="0.32"/>
<path d="M1371.3 878.9H1328.7V885.3H1371.3V878.9Z" fill="white" fill-opacity="0.32"/>
<path d="M1371.3 1018.7H1328.7V1023.6H1371.3V1018.7Z" fill="white" fill-opacity="0.32"/>
<path d="M1371.3 906.9H1328.7V913.3H1371.3V906.9Z" fill="white" fill-opacity="0.32"/>
<path d="M1371.3 888.2H1328.7V894.6H1371.3V888.2Z" fill="white" fill-opacity="0.32"/>
<path d="M1371.3 916.2H1328.7V922.6H1371.3V916.2Z" fill="white" fill-opacity="0.32"/>
<path d="M1371.3 897.5H1328.7V903.9H1371.3V897.5Z" fill="white" fill-opacity="0.32"/>
<path d="M1419.7 934.8H1377.1V941.2H1419.7V934.8Z" fill="white" fill-opacity="0.32"/>
<path d="M1419.7 972.1H1377.1V978.5H1419.7V972.1Z" fill="white" fill-opacity="0.32"/>
<path d="M1419.7 981.4H1377.1V987.8H1419.7V981.4Z" fill="white" fill-opacity="0.32"/>
<path d="M1419.7 944.1H1377.1V950.5H1419.7V944.1Z" fill="white" fill-opacity="0.32"/>
<path d="M1419.7 962.8H1377.1V969.2H1419.7V962.8Z" fill="white" fill-opacity="0.32"/>
<path d="M1419.7 1000H1377.1V1006.4H1419.7V1000Z" fill="white" fill-opacity="0.32"/>
<path d="M1419.7 853H1377.1V857.4H1419.7V853Z" fill="white" fill-opacity="0.32"/>
<path d="M1419.7 990.7H1377.1V997.1H1419.7V990.7Z" fill="white" fill-opacity="0.32"/>
<path d="M1419.7 1009.4H1377.1V1015.8H1419.7V1009.4Z" fill="white" fill-opacity="0.32"/>
<path d="M1419.7 953.5H1377.1V959.9H1419.7V953.5Z" fill="white" fill-opacity="0.32"/>
<path d="M1419.7 925.5H1377.1V931.9H1419.7V925.5Z" fill="white" fill-opacity="0.32"/>
<path d="M1419.7 860.3H1377.1V866.7H1419.7V860.3Z" fill="white" fill-opacity="0.32"/>
<path d="M1419.7 878.9H1377.1V885.3H1419.7V878.9Z" fill="white" fill-opacity="0.32"/>
<path d="M1419.7 1018.7H1377.1V1023.6H1419.7V1018.7Z" fill="white" fill-opacity="0.32"/>
<path d="M1419.7 869.6H1377.1V876H1419.7V869.6Z" fill="white" fill-opacity="0.32"/>
<path d="M1419.7 906.9H1377.1V913.3H1419.7V906.9Z" fill="white" fill-opacity="0.32"/>
<path d="M1419.7 888.2H1377.1V894.6H1419.7V888.2Z" fill="white" fill-opacity="0.32"/>
<path d="M1419.7 916.2H1377.1V922.6H1419.7V916.2Z" fill="white" fill-opacity="0.32"/>
<path d="M1419.7 897.5H1377.1V903.9H1419.7V897.5Z" fill="white" fill-opacity="0.32"/>
</g>
</g>
<defs>
<clipPath id="clip0">
<rect x="27" y="863" width="1386.7" height="160.7" fill="white"/>
</clipPath>
<clipPath id="clip1">
<rect x="27" y="730" width="1387" height="294" fill="white"/>
</clipPath>
<clipPath id="clip2">
<rect x="22" y="853" width="1397.7" height="170.6" fill="white"/>
</clipPath>
</defs>
</svg>
