<svg width="1440" height="1024" viewBox="0 0 1440 1024" fill="none" xmlns="http://www.w3.org/2000/svg">
<g clip-path="url(#clip0)">
<g clip-path="url(#clip1)">
<path d="M1338.2 1019.5C1327.7 1020.1 1314.7 1018.9 1304.2 1017.2C1293.7 1015.5 1288.2 1008.5 1278.6 1008.2C1268.9 1007.9 1258.9 1009.4 1250.1 1009.9C1241.3 1010.5 1237.5 1003.5 1227 1002C1216.5 1000.5 1213.1 1002.6 1207.3 999.7C1201.5 996.8 1175.8 971.2 1167.8 963.3C1159.8 955.4 1148.5 939.7 1143.9 917.6C1139.3 895.5 1134.2 896.3 1129.6 880.3C1125 864.3 1117 859 1114.5 873C1112 887 1106.9 892.2 1101.9 899.8C1096.9 907.4 1093.1 916.1 1089.7 936.2C1086.3 956.3 1078.8 958.9 1072.1 971.4C1065.4 983.9 1056.1 985.1 1051.1 983.6C1046.1 982.1 1038.9 975.7 1035.1 978.9C1031.3 982.1 1027.5 980.1 1022.5 981.5C1017.5 982.9 1020.8 990 1018.3 990.5C1015.8 991.1 1006.5 989.9 1003.2 991.1C999.8 992.3 994.8 999.3 986.4 997.5C978 995.8 973 991.1 968.8 992.8C964.6 994.5 954.5 1009.1 950.3 1007.4C946.1 1005.7 934.3 989.3 931 989.9C927.6 990.5 920.9 994.6 917.6 995.1C914.2 995.7 910.9 992.2 905 984C899.1 975.8 882.3 950.2 879 950.2C875.6 950.2 863 967.7 862.2 964.8C861.4 961.9 848.8 936.3 845.4 937.4C842 938.6 833.6 949.6 828.6 965.4C823.6 981.1 808.5 994.5 808.5 994.5C808.5 994.5 798.4 984 794.2 986.3C790 988.6 774 1004.9 774 1004.9C755.5 989.8 752.2 998.5 742.1 1004.9C732 1011.3 720.4 1015.4 720.4 1015.4C720.4 1015.4 708.8 1011.3 698.7 1004.9C688.6 998.5 685.3 989.8 666.8 1004.9C666.8 1004.9 650.8 988.6 646.6 986.3C642.4 984 632.3 994.5 632.3 994.5C632.3 994.5 617.2 981.1 612.1 965.4C607.1 949.7 598.7 938.6 595.3 937.4C591.9 936.2 579.3 961.9 578.5 964.8C577.7 967.7 565.1 950.2 561.7 950.2C558.3 950.2 541.5 975.8 535.7 984C529.8 992.2 526.5 995.6 523.1 995.1C519.7 994.5 513 990.4 509.7 989.9C506.3 989.3 494.6 1005.6 490.4 1007.4C486.2 1009.1 476.1 994.6 471.9 992.8C467.7 991.1 462.7 995.7 454.3 997.5C445.9 999.2 440.9 992.3 437.5 991.1C434.1 989.9 424.9 991.1 422.4 990.5C419.9 989.9 423.2 982.9 418.2 981.5C413.2 980.1 409.4 982.1 405.6 978.9C401.8 975.7 394.7 982.1 389.6 983.6C384.6 985.1 375.3 983.9 368.6 971.4C362 959 354.4 956.4 351.1 936.3C347.7 916.2 344 907.5 338.9 899.9C333.8 892.3 328.8 887.1 326.3 873.1C323.8 859.1 315.8 864.4 311.2 880.4C306.6 896.4 301.5 895.5 296.9 917.7C292.3 939.8 280.9 955.6 273 963.4C265 971.3 239.4 996.9 233.5 999.8C227.6 1002.7 224.3 1000.7 213.8 1002.1C203.3 1003.6 199.5 1010.5 190.7 1010C181.9 1009.4 171.8 1008 162.2 1008.3C152.6 1008.6 147.1 1015.6 136.6 1017.3C126.1 1019 113.1 1020.2 102.6 1019.6C92.1 1019 38.3 1021 27 1025.7H720.4H1413.8C1402.4 1021 1348.7 1019 1338.2 1019.5Z" fill="white"/>
</g>
</g>
<defs>
<clipPath id="clip0">
<rect width="1440" height="1024" fill="white"/>
</clipPath>
<clipPath id="clip1">
<rect x="27" y="865" width="1386.7" height="160.7" fill="white"/>
</clipPath>
</defs>
</svg>
