<svg width="242" height="74" viewBox="0 0 242 74" fill="none" xmlns="http://www.w3.org/2000/svg">
<path d="M15.424 55.5759C12.736 55.5759 10.7733 54.6799 9.536 52.8879L4.16 56.7279H2.944L10.112 14.8079C8.832 14.9359 7.76533 15.5332 6.912 16.5999L5.952 15.8319C7.232 14.2959 8.832 13.5279 10.752 13.5279C12.7147 13.5279 14.2293 14.0185 15.296 14.9999C16.3627 15.9812 16.896 17.3679 16.896 19.1599C16.896 19.5012 16.8533 20.0559 16.768 20.8239C16.0853 24.6212 15.2533 29.1865 14.272 34.5199C16.064 31.6185 18.3893 30.1679 21.248 30.1679C24.1067 30.1679 26.304 30.9999 27.84 32.6639C29.376 34.2852 30.144 36.5252 30.144 39.3839C30.144 44.4185 28.7787 48.3865 26.048 51.2879C23.3173 54.1465 19.776 55.5759 15.424 55.5759ZM14.976 53.8479C17.3227 53.8479 19.2213 52.2265 20.672 48.9839C22.1653 45.6985 22.912 41.6239 22.912 36.7599C22.912 34.7972 22.6987 33.4532 22.272 32.7279C21.888 32.0025 21.1627 31.6399 20.096 31.6399C19.0293 31.6399 17.92 32.2799 16.768 33.5599C15.6587 34.8399 14.848 36.0559 14.336 37.2079C13.824 38.3172 13.568 38.9572 13.568 39.1279H13.44C12.3733 44.7172 11.584 48.9412 11.072 51.7999C11.7973 53.1652 13.0987 53.8479 14.976 53.8479ZM37.244 31.3839C36.22 31.3839 35.1533 31.9812 34.044 33.1759L33.084 32.4079C33.3827 31.8105 34.044 31.2772 35.068 30.8079C36.092 30.3385 37.2227 30.1039 38.46 30.1039C42.3427 30.1039 44.284 31.8532 44.284 35.3519C44.284 36.8452 43.9 39.5119 43.132 43.3519C42.364 47.1919 41.98 49.7092 41.98 50.9039C41.98 52.7385 42.8547 53.6559 44.604 53.6559C45.8413 53.6559 47.036 52.9305 48.188 51.4799C49.3827 50.0292 50.4067 48.0239 51.26 45.4639L53.948 30.6799C57.1053 30.6799 59.4093 30.5519 60.86 30.2959L61.692 30.1039L57.404 54.2959C58.684 54.1679 59.7507 53.5705 60.604 52.5039L61.564 53.2719C60.284 54.8079 58.684 55.5759 56.764 55.5759C54.844 55.5759 53.3507 55.1065 52.284 54.1679C51.2173 53.2292 50.6627 51.9065 50.62 50.1999C48.828 53.7839 46.1827 55.5759 42.684 55.5759C40.1667 55.5759 38.204 54.8719 36.796 53.4639C35.388 52.0132 34.684 50.0292 34.684 47.5119C34.684 46.1892 35.0893 43.6505 35.9 39.8959C36.7107 36.0985 37.1587 33.2612 37.244 31.3839ZM87.4215 55.5759C83.6668 55.5759 81.6188 53.9759 81.2775 50.7759C79.4002 53.9759 77.0108 55.5759 74.1095 55.5759C71.2082 55.5759 68.9895 54.7652 67.4535 53.1439C65.9175 51.4799 65.1495 49.2185 65.1495 46.3599C65.1495 41.3252 66.3442 37.3572 68.7335 34.4559C71.1228 31.5545 74.2162 30.1039 78.0135 30.1039C80.1895 30.1039 81.8748 30.7652 83.0695 32.0879C83.5815 32.7705 83.9015 33.2825 84.0295 33.6239L87.4855 14.8079C86.2055 14.9359 85.1388 15.5332 84.2855 16.5999L83.3255 15.8319C84.6055 14.2959 86.2055 13.5279 88.1255 13.5279C90.0882 13.5279 91.6028 14.0185 92.6695 14.9999C93.7362 15.9812 94.2695 17.3679 94.2695 19.1599C94.2695 19.5012 94.2268 20.0559 94.1415 20.8239C92.0508 32.5572 90.0242 43.7145 88.0615 54.2959C89.3415 54.1679 90.4082 53.5705 91.2615 52.5039L92.2215 53.2719C90.9415 54.8079 89.3415 55.5759 87.4215 55.5759ZM72.3815 48.9839C72.3815 50.9465 72.5735 52.2905 72.9575 53.0159C73.3842 53.7412 74.0242 54.1039 74.8775 54.1039C75.7735 54.1039 76.6268 53.8052 77.4375 53.2079C78.2482 52.6105 78.9308 51.8425 79.4855 50.9039C80.5095 49.3252 81.2348 47.9812 81.6615 46.8719L83.5175 36.7599C83.4322 35.3945 82.9842 34.1572 82.1735 33.0479C81.3628 31.8959 79.9762 31.3199 78.0135 31.3199C76.6482 31.3199 75.3682 33.3252 74.1735 37.3359C72.9788 41.3465 72.3815 45.2292 72.3815 48.9839ZM111.45 41.6239C110.554 40.7279 110.106 39.6399 110.106 38.3599C110.106 37.0799 110.554 35.9919 111.45 35.0959C112.346 34.1572 113.434 33.6879 114.714 33.6879C115.098 33.6879 115.589 33.7732 116.186 33.9439C115.375 32.4505 113.861 31.7039 111.642 31.7039C109.423 31.7039 107.461 33.1119 105.754 35.9279C104.047 38.7439 103.194 42.9252 103.194 48.4719C103.194 50.3919 103.621 51.8212 104.474 52.7599C105.37 53.6559 106.479 54.1039 107.802 54.1039C109.125 54.1039 110.319 53.8479 111.386 53.3359C112.495 52.8239 113.37 52.2265 114.01 51.5439C114.65 50.8185 115.205 50.0719 115.674 49.3039C116.527 47.8959 116.954 46.9999 116.954 46.6159L118.106 47.1279C117.978 47.8105 117.594 48.7279 116.954 49.8799C116.314 50.9892 115.61 51.9065 114.842 52.6319C114.074 53.3572 112.943 54.0399 111.45 54.6799C109.957 55.2772 108.293 55.5759 106.458 55.5759C103.002 55.5759 100.378 54.7652 98.586 53.1439C96.8367 51.4799 95.962 49.2185 95.962 46.3599C95.962 41.2825 97.2207 37.3145 99.738 34.4559C102.298 31.5545 105.754 30.1039 110.106 30.1039C113.05 30.1039 115.311 30.8505 116.89 32.3439C118.469 33.8372 119.258 35.7999 119.258 38.2319C119.258 39.7679 118.789 40.9412 117.85 41.7519C116.954 42.5625 115.887 42.9679 114.65 42.9679C113.413 42.9679 112.346 42.5199 111.45 41.6239ZM145.964 54.2959C146.988 54.2959 148.054 53.6985 149.164 52.5039L150.124 53.2719C149.825 53.8692 149.164 54.4025 148.14 54.8719C147.116 55.3412 145.985 55.5759 144.748 55.5759C140.865 55.5759 138.924 53.8265 138.924 50.3279C138.924 48.8345 139.308 46.1679 140.076 42.3279C140.844 38.4879 141.228 35.9705 141.228 34.7759C141.228 32.9412 140.353 32.0239 138.604 32.0239C137.153 32.0239 135.745 33.0052 134.38 34.9679C133.057 36.9305 131.969 39.5972 131.116 42.9679L129.004 54.9999H121.324L128.428 14.8079C127.148 14.9359 126.081 15.5332 125.228 16.5999L124.268 15.8319C125.548 14.2959 127.148 13.5279 129.068 13.5279C131.03 13.5279 132.545 14.0185 133.612 14.9999C134.678 15.9812 135.212 17.3679 135.212 19.1599C135.212 19.5012 135.169 20.0559 135.083 20.8239L132.396 35.9919C134.145 32.0665 136.854 30.1039 140.524 30.1039C143.041 30.1039 145.004 30.8292 146.412 32.2799C147.82 33.6879 148.524 35.6505 148.524 38.1679C148.524 39.4905 148.118 42.0505 147.308 45.8479C146.497 49.6025 146.049 52.4185 145.964 54.2959ZM166.975 30.1039C172.394 30.1039 175.103 32.2585 175.103 36.5679C175.103 39.2559 173.823 41.3039 171.263 42.7119C168.746 44.0772 165.14 44.7812 160.447 44.8239C160.362 46.3599 160.319 47.5759 160.319 48.4719C160.319 50.3919 160.746 51.8212 161.599 52.7599C162.495 53.6559 163.604 54.1039 164.927 54.1039C166.25 54.1039 167.444 53.8479 168.511 53.3359C169.62 52.8239 170.495 52.2265 171.135 51.5439C171.775 50.8185 172.33 50.0719 172.799 49.3039C173.652 47.8959 174.079 46.9999 174.079 46.6159L175.231 47.1279C175.103 47.8105 174.719 48.7279 174.079 49.8799C173.439 50.9892 172.735 51.9065 171.967 52.6319C171.199 53.3572 170.068 54.0399 168.575 54.6799C167.082 55.2772 165.418 55.5759 163.583 55.5759C160.127 55.5759 157.503 54.7652 155.711 53.1439C153.962 51.4799 153.087 49.2185 153.087 46.3599C153.087 41.2825 154.346 37.3145 156.863 34.4559C159.38 31.5545 162.751 30.1039 166.975 30.1039ZM173.503 36.5679C173.503 35.1599 173.076 34.0079 172.223 33.1119C171.412 32.1732 170.175 31.7039 168.511 31.7039C166.89 31.7039 165.29 32.6852 163.711 34.6479C162.175 36.6105 161.151 39.5119 160.639 43.3519C169.215 43.3092 173.503 41.0479 173.503 36.5679ZM190.301 52.6959C189.746 53.4212 188.978 54.0825 187.997 54.6799C187.058 55.2772 185.821 55.5759 184.285 55.5759C182.749 55.5759 181.447 55.0852 180.381 54.1039C179.314 53.1225 178.781 51.7359 178.781 49.9439C178.781 49.6025 178.823 49.0479 178.909 48.2799L183.069 25.2399C183.837 21.0159 184.882 18.0079 186.205 16.2159C187.57 14.4239 189.362 13.5279 191.581 13.5279C193.117 13.5279 194.375 14.1039 195.357 15.2559C196.381 16.4079 196.893 18.1572 196.893 20.5039C196.893 22.8505 195.975 26.1999 194.141 30.5519C192.349 34.9039 191.453 38.0825 191.453 40.0879H190.301C190.301 37.8265 191.197 34.6052 192.989 30.4239C194.781 26.1999 195.677 22.8292 195.677 20.3119C195.677 18.7759 195.314 17.4532 194.589 16.3439C193.906 15.2345 193.053 14.6799 192.029 14.6799C191.986 15.7892 191.239 20.7812 189.789 29.6559C188.381 38.4879 186.973 46.7012 185.565 54.2959C186.759 54.2959 187.869 53.6772 188.893 52.4399C189.917 51.2025 190.642 49.9652 191.069 48.7279L191.773 46.8079L192.925 47.3199C192.797 47.9172 192.455 48.7919 191.901 49.9439C191.389 51.0532 190.855 51.9705 190.301 52.6959ZM208.113 52.6959C207.558 53.4212 206.79 54.0825 205.809 54.6799C204.87 55.2772 203.633 55.5759 202.097 55.5759C200.561 55.5759 199.26 55.0852 198.193 54.1039C197.126 53.1225 196.593 51.7359 196.593 49.9439C196.593 49.6025 196.636 49.0479 196.721 48.2799L200.881 25.2399C201.649 21.0159 202.694 18.0079 204.017 16.2159C205.382 14.4239 207.174 13.5279 209.393 13.5279C210.929 13.5279 212.188 14.1039 213.169 15.2559C214.193 16.4079 214.705 18.1572 214.705 20.5039C214.705 22.8505 213.788 26.1999 211.953 30.5519C210.161 34.9039 209.265 38.0825 209.265 40.0879H208.113C208.113 37.8265 209.009 34.6052 210.801 30.4239C212.593 26.1999 213.489 22.8292 213.489 20.3119C213.489 18.7759 213.126 17.4532 212.401 16.3439C211.718 15.2345 210.865 14.6799 209.841 14.6799C209.798 15.7892 209.052 20.7812 207.601 29.6559C206.193 38.4879 204.785 46.7012 203.377 54.2959C204.572 54.2959 205.681 53.6772 206.705 52.4399C207.729 51.2025 208.454 49.9652 208.881 48.7279L209.585 46.8079L210.737 47.3199C210.609 47.9172 210.268 48.7919 209.713 49.9439C209.201 51.0532 208.668 51.9705 208.113 52.6959ZM236.806 55.5759C233.051 55.5759 231.003 53.9332 230.662 50.6479C228.784 53.9332 226.416 55.5759 223.558 55.5759C220.699 55.5759 218.416 54.7225 216.71 53.0159C215.046 51.2665 214.214 48.8345 214.214 45.7199C214.214 40.8559 215.408 37.0372 217.798 34.2639C220.187 31.4905 223.28 30.1039 227.078 30.1039C230.192 30.1039 232.262 31.5759 233.286 34.5199C233.499 33.2399 233.734 31.9599 233.99 30.6799C237.147 30.6799 239.494 30.5519 241.03 30.2959L241.862 30.1039L237.446 54.2959C238.726 54.1679 239.792 53.5705 240.646 52.5039L241.606 53.2719C240.326 54.8079 238.726 55.5759 236.806 55.5759ZM221.446 48.9839C221.446 50.9039 221.68 52.2479 222.15 53.0159C222.662 53.7412 223.43 54.1039 224.454 54.1039C225.478 54.1039 226.523 53.5492 227.59 52.4399C228.998 50.9892 230.128 49.1545 230.982 46.9359C231.11 46.3812 231.344 45.0585 231.686 42.9679C232.07 40.8345 232.39 39.0852 232.646 37.7199C232.518 36.0985 232.07 34.6905 231.302 33.4959C230.534 32.3012 229.574 31.7039 228.422 31.7039C226.331 31.7039 224.646 33.5812 223.366 37.3359C222.086 41.0479 221.446 44.9305 221.446 48.9839Z" fill="#F7B31F"/>
</svg>
